#tb 0: 1/25
0,          0,          0,        1,  8294400, 0x74ef6d7b
0,          1,          1,        1,  8294400, 0xe967332b
0,          2,          2,        1,  8294400, 0xe28627b7
0,          3,          3,        1,  8294400, 0x9779d778
0,          4,          4,        1,  8294400, 0x68ab7ee5
0,          5,          5,        1,  8294400, 0x4c12b7e4
0,          6,          6,        1,  8294400, 0x4ce7f282
0,          7,          7,        1,  8294400, 0x6d293b07
0,          8,          8,        1,  8294400, 0xe96d5bdf
0,          9,          9,        1,  8294400, 0xf964c3b4
0,         10,         10,        1,  8294400, 0x0a15d211
0,         11,         11,        1,  8294400, 0xaaabcb5a
0,         12,         12,        1,  8294400, 0x6864d963
0,         13,         13,        1,  8294400, 0x20a41df6
0,         14,         14,        1,  8294400, 0x9fc653b3
0,         15,         15,        1,  8294400, 0x31661f8b
0,         16,         16,        1,  8294400, 0xc7671036
0,         17,         17,        1,  8294400, 0x6375ce06
0,         18,         18,        1,  8294400, 0xec6b1c8b
0,         19,         19,        1,  8294400, 0xcabcf06c
0,         20,         20,        1,  8294400, 0x85f42aef
